# xmcd
#
# Track frame offsets:
#	150
#	18942
#	38620
#	58092
#	78662
#	100747
#	118087
#	136917
#	156982
#	176857
#	196125
#	215737
#	234980
#	249140
#	267050
#	285980
#	300495
#	321272
#
# Disc length: 4529 seconds
#
# Revision: 0
# Processed by: cddbd v1.4PL0 Copyright (c) Steve Scherf et al.
# Submitted via: dBpowerAMP V4.0
#
DISCID=f011af12
DTITLE=Various Artist - SHe The Album
DYEAR=1996
DGENRE=Easy Listening
TTITLE0=M-People - Search For The Hero
TTITLE1=Lisa Stansfield - All Around The World
TTITLE2=Aretha Franklin - Freeway Of Love
TTITLE3=Margaret Urlich - Escaping
TTITLE4=Annie Lennox - Why
TTITLE5=Pointer Sisters - Slow Hand
TTITLE6=Martika - Love...Thy Will Be Done
TTITLE7=Bonnie Tyler - Total Eclipse Of The Heart
TTITLE8=Taylor Dayne - Love Will Lead You Back
TTITLE9=Sade - Smooth Operator
TTITLE10=Tina Arena - Chains
TTITLE11=Dionne Warwick - Heartbreaker
TTITLE12=Marcia Hines - I Just Don't Know What To Do With Myself
TTITLE13=Cyndi Lauper - Time After Time
TTITLE14=Sophie B. Hawkins - Damn, I Wish I Was Your Lover
TTITLE15=Gloria Estefan - Cuts Both Ways
TTITLE16=Gladys Knight and The Pips - Midnight Train To Georgia
TTITLE17=Jennifer Rush - The Power Of Love
EXTD=Elad
EXTT0=
EXTT1=
EXTT2=
EXTT3=
EXTT4=
EXTT5=
EXTT6=
EXTT7=
EXTT8=
EXTT9=
EXTT10=
EXTT11=
EXTT12=
EXTT13=
EXTT14=
EXTT15=
EXTT16=
EXTT17=
PLAYORDER=
